<?xml version="1.0" encoding="iso-8859-1"?>
<!-- Generator: Adobe Illustrator 19.0.0, SVG Export Plug-In . SVG Version: 6.00 Build 0)  -->
<svg version="1.1" id="Layer_1" xmlns="http://www.w3.org/2000/svg" xmlns:xlink="http://www.w3.org/1999/xlink" x="0px" y="0px"
	 viewBox="0 0 511.999 511.999" style="enable-background:new 0 0 511.999 511.999;" xml:space="preserve">
<g>
	<g>
		<path d="M507.77,96.789c-3.92-4.669-9.903-6.958-15.769-6.358c2.345-4.855,4.354-9.891,6.016-15.091
			c2.279-7.127-0.123-15.046-5.97-19.699c-5.849-4.662-14.103-5.232-20.545-1.416c-14.758,8.753-30.599,15.287-47.157,19.455
			c-21.035-18.575-48.714-29.128-76.82-29.128c-63.816,0-115.735,51.917-115.735,115.731c0,0.714,0.006,1.428,0.019,2.142
			c-64.801-8.793-124.951-42.372-166.494-93.332c-3.765-4.618-9.554-7.099-15.467-6.617C43.922,62.94,38.597,66.283,35.6,71.42
			c-10.258,17.603-15.68,37.727-15.68,58.199c0,18.054,4.218,35.74,12.145,51.67c-1.32,0.393-2.602,0.936-3.818,1.634
			c-5.477,3.138-8.967,9.007-9.111,15.299c-0.013,0.551-0.014,1.102-0.014,1.659c0,32.878,14.268,64.167,38.287,85.933
			c-3.841,4.722-5.072,11.157-3.206,16.976c9.946,31.053,32.666,56.265,61.702,69.726C92.746,383.153,67.381,388.7,41.425,388.7
			c-7.086,0-14.204-0.416-21.147-1.238c-8.439-1.004-16.336,3.885-19.202,11.89c-2.863,8,0.132,16.789,7.282,21.373
			c47.672,30.566,102.793,46.722,159.404,46.722c111.254,0,180.924-52.547,219.777-96.631
			c48.338-54.836,76.06-127.446,76.06-199.211c0-1.265-0.008-2.537-0.024-3.811c17.576-13.928,32.828-30.48,45.386-49.265
			C513.42,111.86,512.927,102.917,507.77,96.789z M447.131,154.728c-2.645,1.993-4.158,5.147-4.057,8.456
			c0.086,2.799,0.129,5.633,0.129,8.425c0,66.867-25.866,134.561-70.965,185.723c-36.075,40.928-100.834,89.716-204.475,89.716
			c-49.475,0-97.73-13.257-140.171-38.423c4.596,0.316,9.222,0.475,13.837,0.475c37.456,0,73.838-10.387,105.213-30.038
			c3.502-2.195,5.335-6.287,4.64-10.361c-0.697-4.075-3.783-7.326-7.816-8.234c-31.581-7.104-57.553-30.05-68.608-60.322
			c1.701,0.258,3.412,0.473,5.115,0.644c4.75,0.466,9.202-2.416,10.699-6.954c1.497-4.539-0.358-9.508-4.462-11.956
			c-28.06-16.734-45.763-46.996-46.651-79.439c3.985,2.013,8.121,3.766,12.341,5.228c4.347,1.505,9.163-0.084,11.758-3.882
			c2.597-3.797,2.33-8.861-0.651-12.365c-14.629-17.197-22.685-39.144-22.685-61.799c0-15.768,3.9-31.279,11.306-45.069
			c47.495,56.842,116.675,93.062,190.337,99.529c3.076,0.267,6.105-0.866,8.244-3.091s3.155-5.3,2.764-8.36
			c-0.519-4.065-0.782-8.219-0.782-12.344c0-52.566,42.768-95.332,95.336-95.332c24.725,0,49.052,9.914,66.741,27.198
			c2.46,2.403,5.965,3.408,9.323,2.665c18.548-4.087,36.34-10.801,52.975-19.987c-4.049,10.366-9.853,19.856-17.303,28.281
			c-3.006,3.399-3.405,8.376-0.978,12.211c2.426,3.835,7.097,5.607,11.453,4.344c6.018-1.74,11.985-3.781,17.819-6.092
			C476.151,129.269,462.58,143.088,447.131,154.728z"/>
	</g>
</g>
<g>
	<g>
		<path d="M89.95,145.834c-2.153-1.605-4.298-3.258-6.377-4.91c-4.409-3.506-10.826-2.774-14.331,1.636
			c-3.505,4.409-2.773,10.825,1.636,14.331c2.241,1.782,4.554,3.564,6.874,5.294c1.832,1.366,3.97,2.025,6.091,2.025
			c3.11,0,6.182-1.418,8.183-4.102C95.394,155.592,94.465,149.203,89.95,145.834z"/>
	</g>
</g>
<g>
	<g>
		<path d="M222.328,196.399c-36.715-3.223-73.142-14.6-105.344-32.9c-4.898-2.783-11.123-1.07-13.907,3.828
			c-2.783,4.898-1.07,11.123,3.828,13.907c34.73,19.738,74.026,32.009,113.639,35.487c0.304,0.026,0.605,0.04,0.904,0.04
			c5.229,0,9.682-4,10.148-9.309C232.088,201.84,227.939,196.892,222.328,196.399z"/>
	</g>
</g>
<g>
</g>
<g>
</g>
<g>
</g>
<g>
</g>
<g>
</g>
<g>
</g>
<g>
</g>
<g>
</g>
<g>
</g>
<g>
</g>
<g>
</g>
<g>
</g>
<g>
</g>
<g>
</g>
<g>
</g>
</svg>
